# xmcd
#
# Track frame offsets:
#	150
#	18930
#	35081
#	51618
#	69865
#	85577
#	100014
#	117151
#	133746
#	147712
#	163649
#	179039
#	193493
#	209130
#
# Disc length: 2995 seconds
#
# Revision: 1
# Processed by: cddbd v1.5.2PL0 Copyright (c) Steve Scherf et al.
# Submitted via: audiograbber 1.83.01
#
DISCID=da0bb10e
DTITLE=Various Artist - Hitz Country 2008 Vol. 4
DYEAR=2008
DGENRE=Country
TTITLE0=Better As A Memory - Kenny Chesney
TTITLE1=All I Want To Do - Sugarland
TTITLE2=Good Time - Alan Jackson
TTITLE3=Should've Said No - Taylor Swift
TTITLE4=Put A Girl In It - Brooks and Dunn
TTITLE5=Country Man - Luke Bryan
TTITLE6=Love Remembers - Craig Morgan
TTITLE7=His Kind Of Money (My Kind Of Love) - Eric Morgan
TTITLE8=Voices - Chris Young
TTITLE9=When It Rains - Eli Young Band
TTITLE10=For You - James Otto
TTITLE11=Anything Goes - Randy Houser
TTITLE12=All I Ever Wanted - Chuck Wicks
TTITLE13=Sounds So Good - Ashton Shepherd
EXTD=
EXTT0=
EXTT1=
EXTT2=
EXTT3=
EXTT4=
EXTT5=
EXTT6=
EXTT7=
EXTT8=
EXTT9=
EXTT10=
EXTT11=
EXTT12=
EXTT13=
PLAYORDER=
